Coordinates
version=1
nRows=11
nColumns=63
inDegrees=yes

Units are S.I. units (second, meters, Newtons, ...)
If the header above contains a line with 'inDegrees', this indicates whether rotational values are in degrees (yes) or radians (no).

endheader
time	pelvis_tilt	pelvis_list	pelvis_rotation	pelvis_tx	pelvis_ty	pelvis_tz	hip_flexion_r	hip_adduction_r	hip_rotation_r	knee_angle_r	knee_angle_r_beta	ankle_angle_r	subtalar_angle_r	mtp_angle_r	hip_flexion_l	hip_adduction_l	hip_rotation_l	knee_angle_l	knee_angle_l_beta	ankle_angle_l	subtalar_angle_l	mtp_angle_l	L5_S1_Flex_Ext	L5_S1_Lat_Bending	L5_S1_axial_rotation	L4_L5_Flex_Ext	L4_L5_Lat_Bending	L4_L5_axial_rotation	L3_L4_Flex_Ext	L3_L4_Lat_Bending	L3_L4_axial_rotation	L2_L3_Flex_Ext	L2_L3_Lat_Bending	L2_L3_axial_rotation	L1_L2_Flex_Ext	L1_L2_Lat_Bending	L1_L2_axial_rotation	L1_T12_Flex_Ext	L1_T12_Lat_Bending	L1_T12_axial_rotation	Abs_r3	Abs_r2	Abs_r1	Abs_t1	Abs_t2	neck_flexion	neck_bending	neck_rotation	arm_flex_r	arm_add_r	arm_rot_r	elbow_flex_r	pro_sup_r	wrist_flex_r	wrist_dev_r	arm_flex_l	arm_add_l	arm_rot_l	elbow_flex_l	pro_sup_l	wrist_flex_l	wrist_dev_l
0.000000	-0.044415	-3.247967	95.604960	0.435524	0.655460	1.098764	7.763115	0.036210	-3.007929	6.671305	0.116436	25.003785	-0.226506	0.000000	10.914364	-0.176301	-3.290429	12.739810	0.222352	31.594448	0.682094	0.000000	-0.146078	0.002352	2.239118	-0.271282	0.003128	2.379063	-0.239992	0.005718	2.379063	-0.166953	0.005718	1.959228	-0.135648	0.004795	1.819283	-0.083469	0.003643	1.679339	-1.043421	0.026602	12.453303	0.000000	0.000000	15.618712	2.920918	-2.515232	6.300017	-11.672847	22.205788	32.072269	77.346021	-8.312746	7.298353	23.678128	-13.523337	64.785363	38.697885	89.426267	-31.680962	-14.905546
0.016949	0.053394	-3.498715	96.058129	0.436546	0.654490	1.099501	8.645992	-0.079279	-4.899602	8.053800	0.140565	26.575155	2.156211	0.000000	11.342611	-0.187360	-1.927337	12.793614	0.223291	31.568060	-0.365534	0.000000	-0.115651	-0.014827	2.060599	-0.214775	-0.019720	2.189387	-0.190003	-0.036051	2.189387	-0.132177	-0.036051	1.803024	-0.107393	-0.030236	1.674237	-0.066083	-0.022968	1.545449	-0.826083	-0.167730	11.460435	0.000000	0.000000	16.546955	3.745179	-2.176403	6.861627	-11.278497	21.305544	33.970805	79.954908	-8.440377	6.952309	23.214237	-13.003722	60.067714	41.847575	89.140434	-27.344270	-10.649243
0.033898	0.166891	-3.696402	96.413308	0.437394	0.653759	1.100090	9.366890	-0.114413	-6.246316	9.175306	0.160139	27.800324	3.818126	0.000000	11.668337	-0.243190	-0.910168	12.816756	0.223695	31.543578	-1.112032	0.000000	-0.090300	-0.025249	1.919453	-0.167695	-0.033582	2.039419	-0.148353	-0.061392	2.039419	-0.103203	-0.061392	1.679521	-0.083852	-0.051489	1.559556	-0.051597	-0.039111	1.439590	-0.645001	-0.285627	10.675422	0.000000	0.000000	17.344858	4.281501	-1.935530	7.210293	-10.993647	20.642133	35.823913	81.929624	-8.241225	6.919982	22.785074	-12.500837	56.010203	44.716830	88.913515	-23.709711	-7.181274
0.050847	0.292026	-3.845195	96.676873	0.438085	0.653247	1.100540	9.939064	-0.079842	-7.104269	10.059339	0.175569	28.712226	4.838554	0.000000	11.899905	-0.337380	-0.209763	12.812099	0.223613	31.521514	-1.584368	0.000000	-0.069648	-0.029744	1.812803	-0.129344	-0.039560	1.926103	-0.114425	-0.072321	1.926103	-0.079601	-0.072321	1.586202	-0.064675	-0.060655	1.472902	-0.039797	-0.046074	1.359602	-0.497491	-0.336475	10.082265	0.000000	0.000000	18.021278	4.556234	-1.782184	7.364402	-10.807421	20.186063	37.627704	83.321217	-7.763319	7.166772	22.388059	-12.017505	52.563129	47.320016	88.740211	-20.714818	-4.432444
0.067797	0.424752	-3.949258	96.855202	0.438634	0.652933	1.100860	10.375767	0.013788	-7.529662	10.729417	0.187264	29.343796	5.296808	0.000000	12.045678	-0.463522	0.203039	12.782507	0.223097	31.502376	-1.809506	0.000000	-0.053321	-0.029142	1.737771	-0.099023	-0.038758	1.846382	-0.087602	-0.070855	1.846382	-0.060941	-0.070855	1.520550	-0.049514	-0.059426	1.411939	-0.030468	-0.045141	1.303328	-0.380870	-0.329657	9.664962	0.000000	0.000000	18.585071	4.595731	-1.705938	7.342341	-10.708941	19.907845	39.378288	84.180737	-7.054688	7.658079	22.020614	-11.556545	49.676790	49.671501	88.615224	-18.297128	-2.333558
0.084746	0.561021	-4.012757	96.954672	0.439058	0.652799	1.101056	10.690256	0.155827	-7.578697	11.209057	0.195635	29.727969	5.272204	0.000000	12.114018	-0.615204	0.357399	12.730843	0.222195	31.486677	-1.814411	0.000000	-0.040943	-0.024271	1.691482	-0.076035	-0.032280	1.797200	-0.067265	-0.059013	1.797200	-0.046794	-0.059013	1.480047	-0.038020	-0.049494	1.374329	-0.023395	-0.037596	1.268611	-0.292452	-0.274559	9.407515	0.000000	0.000000	19.045097	4.426344	-1.696362	7.162499	-10.687333	19.777987	41.071775	84.559234	-6.163360	8.359305	21.680159	-11.120778	47.301485	51.785650	88.533255	-16.394176	-0.815419
0.101695	0.696784	-4.039855	96.981660	0.439372	0.652824	1.101138	10.895785	0.335627	-7.307573	11.521776	0.201093	29.897679	4.844056	0.000000	12.113287	-0.786018	0.282475	12.659969	0.220958	31.474924	-1.626049	0.000000	-0.032137	-0.015962	1.671058	-0.059682	-0.021229	1.775499	-0.052798	-0.038810	1.775499	-0.036730	-0.038810	1.462176	-0.029843	-0.032550	1.357735	-0.018363	-0.024725	1.253293	-0.229554	-0.180565	9.293923	0.000000	0.000000	19.410211	4.074424	-1.743028	6.843261	-10.731721	19.766999	42.704276	84.507756	-5.137365	9.235850	21.364116	-10.713025	45.387511	53.676830	88.489004	-14.943498	0.191168
0.118644	0.827994	-4.034718	96.942543	0.439593	0.652988	1.101115	11.005609	0.542540	-6.772491	11.691090	0.204048	29.885860	4.091676	0.000000	12.051847	-0.969553	0.007428	12.572748	0.219436	31.467629	-1.271386	0.000000	-0.026529	-0.005044	1.673622	-0.049266	-0.006709	1.778224	-0.043584	-0.012264	1.778224	-0.030319	-0.012264	1.464419	-0.024634	-0.010286	1.359818	-0.015158	-0.007813	1.255217	-0.189491	-0.057061	9.308185	0.000000	0.000000	19.689270	3.566322	-1.835509	6.403015	-10.831228	19.845389	44.271901	84.077355	-4.024732	10.253115	21.069905	-10.336107	43.885168	55.359407	88.477172	-13.882629	0.755399
0.135593	0.950603	-4.001511	96.843698	0.439737	0.653272	1.100993	11.032982	0.765917	-6.029653	11.740518	0.204911	29.725447	3.094381	0.000000	11.938061	-1.159399	-0.438580	12.472043	0.217678	31.465302	-0.777387	0.000000	-0.023741	0.007653	1.696298	-0.044089	0.010178	1.802317	-0.039004	0.018607	1.802317	-0.027133	0.018607	1.484261	-0.022046	0.015606	1.378242	-0.013566	0.011854	1.272224	-0.169579	0.086570	9.434302	0.000000	0.000000	19.891133	2.928391	-1.963375	5.860149	-10.974979	19.983667	45.770761	83.319078	-2.873490	11.376500	20.794947	-9.992843	42.744753	56.847748	88.492460	-13.149105	0.946468
0.152542	1.060563	-3.944400	96.691503	0.439819	0.653655	1.100782	10.991161	0.995111	-5.135257	11.693576	0.204091	29.449374	1.931483	0.000000	11.780290	-1.349147	-1.026392	12.360718	0.215735	31.468453	-0.171016	0.000000	-0.023399	0.021299	1.736209	-0.043454	0.028328	1.844722	-0.038442	0.051787	1.844722	-0.026742	0.051787	1.519183	-0.021728	0.043433	1.410670	-0.013370	0.032993	1.302157	-0.167134	0.240942	9.656273	0.000000	0.000000	20.024656	2.186983	-2.116199	5.233050	-11.152097	20.152341	47.196965	82.283975	-1.731667	12.571405	20.536663	-9.686056	41.916565	58.156219	88.529570	-12.680461	0.833573
0.169492	1.153825	-3.867548	96.492334	0.439856	0.654119	1.100489	10.893398	1.219473	-4.145506	11.573782	0.202001	29.090576	0.682297	0.000000	11.586899	-1.532387	-1.726845	12.241634	0.213657	31.477593	0.520760	0.000000	-0.025126	0.035066	1.790478	-0.046661	0.046637	1.902382	-0.041279	0.085259	1.902382	-0.028716	0.085259	1.566668	-0.023332	0.071506	1.454763	-0.014357	0.054317	1.342858	-0.179472	0.396670	9.958099	0.000000	0.000000	20.098697	1.368448	-2.283552	4.540105	-11.351707	20.321922	48.546624	81.023097	-0.647293	13.803232	20.292474	-9.418565	41.350903	59.299186	88.583202	-12.414233	0.485909
